<?xml version="1.0" encoding="UTF-8"?>
<svg id="Layer_1" xmlns="http://www.w3.org/2000/svg" xmlns:xlink="http://www.w3.org/1999/xlink" version="1.1" viewBox="0 0 1625 359.15">
  <!-- Generator: Adobe Illustrator 30.1.0, SVG Export Plug-In . SVG Version: 2.1.1 Build 136)  -->
  <defs>
    <style>
      .st0 {
        fill: url(#linear-gradient2);
      }

      .st1 {
        fill: url(#linear-gradient1);
      }

      .st2 {
        fill: #062039;
      }

      .st3 {
        fill: url(#linear-gradient);
      }

      .st4 {
        isolation: isolate;
      }
    </style>
    <linearGradient id="linear-gradient" x1="553.95" y1="430.75" x2="553.95" y2="429.83" gradientTransform="translate(-32462.99 128837.46) scale(58.98 -299.09)" gradientUnits="userSpaceOnUse">
      <stop offset="0" stop-color="#249cff"/>
      <stop offset="1" stop-color="#1b81d5"/>
    </linearGradient>
    <linearGradient id="linear-gradient1" x1="553.94" y1="429.83" x2="553.96" y2="430.66" gradientTransform="translate(-32623.76 128919.15) scale(58.95 -299.14)" gradientUnits="userSpaceOnUse">
      <stop offset="0" stop-color="#249cff"/>
      <stop offset="1" stop-color="#1b81d5"/>
    </linearGradient>
    <linearGradient id="linear-gradient2" x1="560.78" y1="430.64" x2="561.52" y2="429.78" gradientTransform="translate(-133997.85 102974.87) scale(239.01 -238.94)" gradientUnits="userSpaceOnUse">
      <stop offset="0" stop-color="#249cff"/>
      <stop offset=".51" stop-color="#1b81d5"/>
      <stop offset="1" stop-color="#249cff"/>
    </linearGradient>
  </defs>
  <g id="Group_428">
    <g id="Group_427">
      <path id="Path_44" class="st3" d="M180.04,0l58.96,29.11v239.88l-58.98,30.1L180.04,0Z"/>
      <path id="Path_46" class="st1" d="M58.95,60.01L0,89.11v239.88l58.8,30.16.15-299.14Z"/>
      <path id="Path_45" class="st0" d="M239.01,269.02L58.95,60.13,0,89.14l180.07,209.93,58.94-30.05Z"/>
    </g>
    <g id="Nexspace" class="st4">
      <g class="st4">
        <path class="st2" d="M523.15,90.29v177.8h-33.78l-88.65-107.95v107.95h-40.64V90.29h34.04l88.39,107.95v-107.95h40.64Z"/>
        <path class="st2" d="M695.61,210.94h-103.38c3.81,17.02,18.29,27.43,39.12,27.43,14.48,0,24.89-4.32,34.29-13.21l21.08,22.86c-12.7,14.48-31.75,22.1-56.39,22.1-47.24,0-77.98-29.72-77.98-70.36s31.24-70.36,72.9-70.36,71.12,26.92,71.12,70.87c0,3.05-.51,7.37-.76,10.67ZM591.73,187.83h67.31c-2.79-17.27-15.75-28.45-33.53-28.45s-30.99,10.92-33.78,28.45Z"/>
        <path class="st2" d="M805.85,268.09l-29.97-41.91-30.99,41.91h-43.18l52.58-68.83-50.8-67.82h44.45l28.96,39.88,29.72-39.88h42.16l-50.8,66.8,52.83,69.85h-44.96Z"/>
        <path class="st2" d="M854.36,255.39l13.21-28.45c12.19,7.87,30.73,13.21,47.5,13.21,18.29,0,25.15-4.83,25.15-12.45,0-22.35-82.55.51-82.55-54.1,0-25.91,23.37-44.2,63.25-44.2,18.8,0,39.62,4.32,52.58,11.94l-13.21,28.19c-13.46-7.62-26.92-10.16-39.37-10.16-17.78,0-25.4,5.59-25.4,12.7,0,23.37,82.55.76,82.55,54.61,0,25.4-23.62,43.43-64.52,43.43-23.11,0-46.48-6.35-59.18-14.73Z"/>
        <path class="st2" d="M1151.29,199.77c0,42.93-29.72,70.36-68.07,70.36-17.02,0-30.99-5.33-41.15-16.51v63.75h-39.62v-185.93h37.85v15.75c9.91-11.94,24.64-17.78,42.93-17.78,38.35,0,68.07,27.43,68.07,70.36ZM1111.15,199.77c0-23.62-14.99-37.85-34.8-37.85s-34.8,14.22-34.8,37.85,14.99,37.85,34.8,37.85,34.8-14.22,34.8-37.85Z"/>
        <path class="st2" d="M1296.32,190.11v77.98h-37.08v-17.02c-7.37,12.45-21.59,19.05-41.66,19.05-32,0-51.05-17.78-51.05-41.4s17.02-40.89,58.67-40.89h31.5c0-17.02-10.16-26.92-31.5-26.92-14.48,0-29.46,4.83-39.37,12.7l-14.22-27.69c14.99-10.67,37.08-16.51,58.93-16.51,41.66,0,65.79,19.3,65.79,60.71ZM1256.7,224.91v-13.97h-27.18c-18.54,0-24.38,6.86-24.38,16,0,9.91,8.38,16.51,22.35,16.51,13.21,0,24.64-6.1,29.21-18.54Z"/>
        <path class="st2" d="M1323.49,199.77c0-41.15,31.75-70.36,76.2-70.36,28.7,0,51.31,12.45,61.21,34.8l-30.73,16.51c-7.37-12.95-18.29-18.8-30.73-18.8-20.07,0-35.81,13.97-35.81,37.85s15.75,37.85,35.81,37.85c12.45,0,23.37-5.59,30.73-18.8l30.73,16.76c-9.91,21.84-32.51,34.54-61.21,34.54-44.45,0-76.2-29.21-76.2-70.36Z"/>
        <path class="st2" d="M1615.08,210.94h-103.38c3.81,17.02,18.29,27.43,39.12,27.43,14.48,0,24.89-4.32,34.29-13.21l21.08,22.86c-12.7,14.48-31.75,22.1-56.39,22.1-47.24,0-77.98-29.72-77.98-70.36s31.24-70.36,72.9-70.36,71.12,26.92,71.12,70.87c0,3.05-.51,7.37-.76,10.67ZM1511.2,187.83h67.31c-2.79-17.27-15.75-28.45-33.53-28.45s-30.99,10.92-33.78,28.45Z"/>
      </g>
    </g>
  </g>
</svg>